<?xml version="1.0" standalone="no"?>
<!DOCTYPE svg PUBLIC "-//W3C//DTD SVG 1.1//EN" "http://www.w3.org/Graphics/SVG/1.1/DTD/svg11.dtd">
<svg xmlns="http://www.w3.org/2000/svg" width="220" height="76" viewBox="0 0 220 76" fill="none">
<path d="M173.351 32.4818C173.351 30.2265 173.351 29.2668 171.912 27.8273L171.96 27.6833L177.43 25.7639V45.4376C177.43 47.6929 177.43 48.6526 178.87 50.0921L178.822 50.2361H171.96L171.912 50.0921C173.351 48.6526 173.351 47.6929 173.351 45.4376V32.4818ZM172.488 21.4453C172.488 19.8618 173.783 18.5662 175.367 18.5662C176.95 18.5662 178.246 19.8618 178.246 21.4453V21.4933C178.246 25.2361 179.014 27.3954 181.509 27.3954C182.181 27.3954 183.044 27.2514 184.004 26.9155L187.267 25.7639V29.2668C189.378 27.2514 191.73 26.0038 194.177 26.0038C195.04 26.0038 196.096 26.1478 196.768 26.4837L194.801 29.6987L194.609 29.6507C194.129 28.3551 193.121 27.6833 191.682 27.6833C190.146 27.6833 188.802 28.499 187.267 30.0825V45.4376C187.267 47.6929 187.267 48.6526 188.707 50.0921L188.659 50.2361H181.797L181.749 50.0921C183.188 48.6526 183.188 47.6929 183.188 45.4376V28.691C181.413 28.691 178.246 28.595 177.766 23.0288C177.286 23.7965 176.374 24.3244 175.367 24.3244C173.783 24.3244 172.488 23.0288 172.488 21.4453Z" fill="#708191"/>
<path d="M162.741 50.0921C163.557 49.2764 163.845 48.6526 163.845 47.8368C163.845 47.165 163.653 46.4453 163.269 45.4376L161.349 40.1593H148.01L146.09 45.4376C145.706 46.4453 145.514 47.165 145.514 47.8368C145.514 48.6526 145.802 49.2764 146.618 50.0921L146.57 50.2361H143.019L142.971 50.0921C143.979 48.9885 144.507 47.6929 145.322 45.4376L155.831 16.6468H157.367L167.875 45.4376C168.691 47.6929 169.219 48.9885 170.226 50.0921L170.178 50.2361H162.789L162.741 50.0921ZM148.297 39.4395H161.061L154.679 21.9251L148.297 39.4395Z" fill="#708191"/>
<path d="M111.071 37.904C111.215 29.4107 116.109 26.0517 122.059 26.0517C127.386 26.0517 131.896 28.7389 132.904 35.3128L130.84 35.9366L119.852 39.1516C117.357 39.8713 115.677 40.975 115.677 42.5105C115.677 42.6544 115.677 42.8464 115.725 42.9903C116.925 47.5489 119.948 49.4203 122.971 49.4203C125.898 49.4203 128.537 47.7888 130.361 45.1017L130.745 45.3416C128.441 48.7965 124.986 50.428 121.627 50.428C116.301 50.428 111.215 46.3013 111.071 38.5278V37.904ZM115.149 38.2398C115.149 39.4395 115.245 40.5431 115.389 41.5028C115.965 40.0633 117.405 39.1516 119.756 38.4318L128.921 35.7446C128.585 29.9865 126.666 26.6755 122.059 26.6755C116.829 26.6755 115.149 31.0421 115.149 38.2398Z" fill="#708191"/>
<path d="M102.748 50.2361L102.7 50.0921C104.139 48.6526 104.139 47.6929 104.139 45.4376V22.8848C104.139 20.6295 104.139 19.6698 102.7 18.2303L102.748 18.0863L108.218 16.167V45.4376C108.218 47.6929 108.218 48.6526 109.657 50.0921L109.609 50.2361H102.748Z" fill="#708191"/>
<path d="M81.2026 59.833L81.1546 59.689C82.5942 58.2495 82.5942 57.2898 82.5942 55.0345V36.5604C81.6825 38.6717 80.051 40.879 77.2199 44.142L74.4368 47.357C72.4214 49.6602 69.9262 50.428 67.7189 50.428C62.2967 50.428 59.9934 47.6449 59.9934 44.286C59.9934 34.737 73.861 36.2245 73.861 31.8099V31.522C73.861 27.9232 72.8053 26.6756 69.8303 26.6756C66.2794 26.6756 64.0721 28.355 61.6249 31.714L61.4809 31.666V28.0191C63.6402 28.0191 65.8475 26.0518 69.8303 26.0518C73.5251 26.0518 77.9397 27.2034 77.9397 31.8099V42.1746C81.6825 37.6641 82.5942 34.881 82.5942 31.2821C82.5942 30.1305 82.5462 29.2188 81.1546 27.8272L81.2026 27.6833L86.6729 25.7639V27.4433C87.8725 26.6756 89.2161 26.0518 91.1834 26.0518C96.5577 26.0518 101.548 29.5067 101.548 38.2399C101.548 47.213 96.5577 50.476 91.5673 50.476C89.312 50.476 87.8245 49.6123 86.6729 48.5086V59.833H81.2026ZM63.9761 44.4779C63.9761 47.213 65.2717 49.7082 68.1988 49.7082C70.0702 49.7082 71.8456 49.0364 73.861 46.8771V33.3934C71.6057 36.1765 63.9761 37.6641 63.9761 44.4779ZM73.861 50.2361V49.0364L77.9397 44.3819V45.4376C77.9397 47.6929 77.9397 48.6526 79.3792 50.0921L79.3312 50.2361H73.861ZM86.6729 43.6142C86.6729 48.5086 89.0721 49.8522 91.1355 49.8522C95.742 49.8522 97.4694 45.6775 97.4694 38.2399C97.4694 31.0422 95.742 26.6756 91.1834 26.6756C88.6403 26.6756 86.6729 27.9712 86.6729 32.7216V43.6142Z" fill="#708191"/>
<path d="M59.9972 17.5286C59.5873 18.1434 57.6609 18.4303 57.6609 20.6436V47.1211C57.6609 49.3344 59.5873 49.5803 59.9972 50.2361H49.5045C49.9144 49.5803 51.8408 49.3344 51.8408 47.1211V19.0041L39.5447 50.2361H38.9709L26.142 21.0535V47.1211C26.142 49.3344 28.0274 49.5803 28.4783 50.2361H23.2319C23.6828 49.5803 25.5682 49.3344 25.5682 47.1211V20.6436C25.5682 18.4303 23.6828 18.1434 23.2319 17.5286H30.4046L41.881 42.8175L51.8408 17.5286H59.9972Z" fill="#708191"/>
</svg>